<?xml version="1.0" encoding="utf-8"?>
<!-- Generator: Adobe Illustrator 23.0.0, SVG Export Plug-In . SVG Version: 6.00 Build 0)  -->
<svg version="1.1" id="Layer_1" xmlns="http://www.w3.org/2000/svg" xmlns:xlink="http://www.w3.org/1999/xlink" x="0px" y="0px"
	 viewBox="0 0 400 400" style="enable-background:new 0 0 400 400;" xml:space="preserve">
<style type="text/css">
	.st0{fill:#EA2630;}
	.st1{fill:#A21B26;}
</style>
<path class="st0" d="M357,122.7l-14,11.3c-33.5-28.7-76.7-50-124.1-50C112.3,84,26.2,174.6,26.2,281.1c0,9.8,0.6,19.5,2.1,28.9
	c-3-83.4,62.3-145.1,137.9-145.1c36,0,68.8,14,93.2,36.8l-37.5,30.4c-12.4-1.3-25,2.7-34.4,12.1c-16.5,16.4-16.5,43,0,59.6
	c16.5,16.4,43,16.4,59.6,0c9.4-9.4,13.4-22.2,12.1-34.4l112-132.3C380.5,127.3,366.2,113.3,357,122.7L357,122.7z"/>
<path class="st1" d="M259.2,201.7l-37.5,30.4c-12.4-1.3-25,2.7-34.4,12.1c-16.5,16.4-16.5,43,0,59.6c16.5,16.4,43,16.4,59.6,0
	c9.4-9.4,13.4-22.2,12.1-34.4L371,137c9.4-9.7-4.9-23.7-14.2-14.3v0l-14,11.3"/>
</svg>
